<?xml version="1.0" encoding="utf-8"?>
<!-- Generator: Adobe Illustrator 18.0.0, SVG Export Plug-In . SVG Version: 6.00 Build 0)  -->
<!DOCTYPE svg PUBLIC "-//W3C//DTD SVG 1.1//EN" "http://www.w3.org/Graphics/SVG/1.1/DTD/svg11.dtd">
<svg version="1.1" id="Layer_1" xmlns="http://www.w3.org/2000/svg" xmlns:xlink="http://www.w3.org/1999/xlink" x="0px" y="0px"
	 viewBox="0 0 200.3 80.2" enable-background="new 0 0 200.3 80.2" xml:space="preserve">
<g>
	<rect x="49.1" y="0" fill="#FFFFFF" width="151.2" height="58.9"/>
	<polygon fill="#D75155" points="0,0 0,58.9 21.3,58.9 21.3,80.2 49.1,58.9 49.1,0 	"/>
	<rect x="9.8" y="9.8" fill="#FFFFFF" width="29.5" height="6.5"/>
	<polygon fill="#FFFFFF" points="39.3,31.1 39.3,24.5 9.8,24.5 9.8,31.1 21.3,31.1 21.3,42.5 9.8,42.5 9.8,49.1 39.3,49.1 
		39.3,42.5 27.8,42.5 27.8,31.1 	"/>
	<polygon fill="#466281" points="58.9,34.4 60,34.4 60,41.2 69.4,41.2 69.4,34.4 70.5,34.4 70.5,49.1 69.4,49.1 69.4,42.2 60,42.2 
		60,49.1 58.9,49.1 	"/>
	<g>
		<defs>
			<rect id="SVGID_1_" y="0" width="200.3" height="80.2"/>
		</defs>
		<clipPath id="SVGID_2_">
			<use xlink:href="#SVGID_1_"  overflow="visible"/>
		</clipPath>
		<path clip-path="url(#SVGID_2_)" fill="#466281" d="M74.6,43v-8.6h1.1v8.5c0,3.5,1.9,5.5,5,5.5c3,0,4.9-1.8,4.9-5.4v-8.6h1.1v8.5
			c0,4.2-2.5,6.5-6,6.5C77.1,49.3,74.6,47.1,74.6,43"/>
	</g>
	<polygon fill="#466281" points="90.8,34.4 91.9,34.4 97.8,43.1 103.7,34.4 104.7,34.4 104.7,49.1 103.6,49.1 103.6,36.3 97.8,44.8 
		97.7,44.8 91.9,36.3 91.9,49.1 90.8,49.1 	"/>
	<path fill="#466281" d="M114.7,34.3h1.1l6.9,14.8h-1.2l-1.9-4.1h-8.7l-1.9,4.1h-1.1L114.7,34.3z M119.1,44l-3.9-8.5l-3.9,8.5H119.1
		z"/>
	<polygon fill="#466281" points="125.7,34.4 126.7,34.4 136.9,47.2 136.9,34.4 137.9,34.4 137.9,49.1 137.1,49.1 126.7,36 
		126.7,49.1 125.7,49.1 	"/>
	<rect x="142.7" y="34.4" fill="#466281" width="1.1" height="14.7"/>
	<polygon fill="#466281" points="152.3,35.4 147.1,35.4 147.1,34.4 158.5,34.4 158.5,35.4 153.4,35.4 153.4,49.1 152.3,49.1 	"/>
	<rect x="161.8" y="34.4" fill="#466281" width="1.1" height="14.7"/>
	<polygon fill="#466281" points="167.7,34.4 178.2,34.4 178.2,35.4 168.8,35.4 168.8,41.2 177.2,41.2 177.2,42.2 168.8,42.2 
		168.8,48.1 178.3,48.1 178.3,49.1 167.7,49.1 	"/>
	<g>
		<defs>
			<rect id="SVGID_3_" y="0" width="200.3" height="80.2"/>
		</defs>
		<clipPath id="SVGID_4_">
			<use xlink:href="#SVGID_3_"  overflow="visible"/>
		</clipPath>
		<path clip-path="url(#SVGID_4_)" fill="#466281" d="M180.8,46.9l0.7-0.8c1.6,1.5,3.1,2.2,5.3,2.2c2.2,0,3.7-1.2,3.7-2.9v0
			c0-1.6-0.8-2.5-4.2-3.1c-3.5-0.7-5-1.9-5-4.1v0c0-2.2,2-3.9,4.7-3.9c2.1,0,3.6,0.6,5,1.8l-0.7,0.9c-1.4-1.2-2.8-1.7-4.4-1.7
			c-2.2,0-3.6,1.2-3.6,2.8v0c0,1.6,0.8,2.5,4.3,3.2c3.4,0.7,4.8,1.9,4.8,4.1v0c0,2.4-2,4-4.9,4C184.4,49.3,182.6,48.5,180.8,46.9"/>
	</g>
	<rect x="58.9" y="9.8" fill="#466281" width="1.1" height="14.7"/>
	<polygon fill="#466281" points="64.8,9.8 65.9,9.8 65.9,23.5 74.5,23.5 74.5,24.5 64.8,24.5 	"/>
	<polygon fill="#466281" points="77.8,9.8 78.9,9.8 78.9,23.5 87.5,23.5 87.5,24.5 77.8,24.5 	"/>
	<rect x="90.8" y="9.8" fill="#466281" width="1.1" height="14.7"/>
	<polygon fill="#466281" points="96.7,9.8 97.8,9.8 107.9,22.6 107.9,9.8 109,9.8 109,24.5 108.2,24.5 97.8,11.5 97.8,24.5 
		96.7,24.5 	"/>
	<g>
		<defs>
			<rect id="SVGID_5_" y="0" width="200.3" height="80.2"/>
		</defs>
		<clipPath id="SVGID_6_">
			<use xlink:href="#SVGID_5_"  overflow="visible"/>
		</clipPath>
		<path clip-path="url(#SVGID_6_)" fill="#466281" d="M112.7,17.2L112.7,17.2c0-4.1,3-7.7,7.4-7.7c4.5,0,7.4,3.6,7.4,7.6v0
			c0,4-3,7.6-7.4,7.6C115.6,24.8,112.7,21.2,112.7,17.2 M126.4,17.2L126.4,17.2c0-3.7-2.6-6.7-6.3-6.7c-3.6,0-6.2,2.9-6.2,6.6v0
			c0,3.6,2.7,6.6,6.3,6.6C123.8,23.8,126.4,20.9,126.4,17.2"/>
	</g>
	<rect x="131.3" y="9.8" fill="#466281" width="1.1" height="14.7"/>
	<g>
		<defs>
			<rect id="SVGID_7_" y="0" width="200.3" height="80.2"/>
		</defs>
		<clipPath id="SVGID_8_">
			<use xlink:href="#SVGID_7_"  overflow="visible"/>
		</clipPath>
		<path clip-path="url(#SVGID_8_)" fill="#466281" d="M136,22.4l0.7-0.8c1.6,1.5,3.1,2.2,5.3,2.2c2.2,0,3.7-1.2,3.7-2.9v0
			c0-1.6-0.8-2.5-4.2-3.1c-3.5-0.7-5-1.9-5-4.1v0c0-2.2,2-3.9,4.7-3.9c2.1,0,3.6,0.6,5,1.8l-0.7,0.9c-1.4-1.2-2.8-1.7-4.4-1.7
			c-2.2,0-3.6,1.2-3.6,2.8v0c0,1.6,0.8,2.5,4.3,3.2c3.4,0.7,4.8,1.9,4.8,4.1v0c0,2.4-2,4-4.9,4C139.6,24.7,137.8,24,136,22.4"/>
	</g>
</g>
</svg>
